<mxfile host="app.diagrams.net" agent="Mozilla/5.0 (Macintosh; Intel Mac OS X 10_15_7) AppleWebKit/605.1.15 (KHTML, like Gecko) Version/16.6 Safari/605.1.15" version="27.0.9">
  <diagram name="Pagina-1" id="g02MceP3iFsunGzKskny">
    <mxGraphModel grid="1" page="0" gridSize="10" guides="1" tooltips="1" connect="1" arrows="1" fold="1" pageScale="1" pageWidth="827" pageHeight="1169" math="0" shadow="0">
      <root>
        <mxCell id="0" />
        <mxCell id="1" parent="0" />
        <mxCell id="yimpczpQPqt2kt8ZRVUJ-1" value="Prodotto" style="rounded=0;whiteSpace=wrap;html=1;" vertex="1" parent="1">
          <mxGeometry x="-110" y="184.99999999999977" width="115" height="50" as="geometry" />
        </mxCell>
        <mxCell id="yimpczpQPqt2kt8ZRVUJ-2" value="" style="shape=flexArrow;endArrow=classic;html=1;rounded=0;strokeColor=#000000;fillColor=#000000;endWidth=32.70321361058601;endSize=9.791304347826088;width=17.39130434782609;" edge="1" parent="1">
          <mxGeometry width="50" height="50" relative="1" as="geometry">
            <mxPoint x="-39.559999999999945" y="321.17999999999995" as="sourcePoint" />
            <mxPoint x="-40" y="234.04999999999995" as="targetPoint" />
          </mxGeometry>
        </mxCell>
        <mxCell id="yimpczpQPqt2kt8ZRVUJ-3" value="" style="endArrow=none;html=1;rounded=0;" edge="1" parent="1">
          <mxGeometry width="50" height="50" relative="1" as="geometry">
            <mxPoint x="-165" y="321.2499999999998" as="sourcePoint" />
            <mxPoint x="115" y="320.2499999999998" as="targetPoint" />
          </mxGeometry>
        </mxCell>
        <mxCell id="yimpczpQPqt2kt8ZRVUJ-4" value="" style="endArrow=none;html=1;rounded=0;" edge="1" parent="1">
          <mxGeometry width="50" height="50" relative="1" as="geometry">
            <mxPoint x="-85" y="321.2499999999998" as="sourcePoint" />
            <mxPoint x="-85" y="339.9999999999998" as="targetPoint" />
          </mxGeometry>
        </mxCell>
        <mxCell id="yimpczpQPqt2kt8ZRVUJ-5" value="" style="endArrow=none;html=1;rounded=0;" edge="1" parent="1">
          <mxGeometry width="50" height="50" relative="1" as="geometry">
            <mxPoint x="115" y="339.9999999999998" as="sourcePoint" />
            <mxPoint x="115" y="319.9999999999998" as="targetPoint" />
          </mxGeometry>
        </mxCell>
        <mxCell id="yimpczpQPqt2kt8ZRVUJ-6" value="bustina" style="rounded=0;whiteSpace=wrap;html=1;" vertex="1" parent="1">
          <mxGeometry x="-115" y="339.9999999999998" width="78" height="51.25" as="geometry" />
        </mxCell>
        <mxCell id="yimpczpQPqt2kt8ZRVUJ-7" value="bundle ufficiale" style="rounded=0;whiteSpace=wrap;html=1;" vertex="1" parent="1">
          <mxGeometry x="-27.99000000000001" y="339.3799999999999" width="80.99" height="51.87" as="geometry" />
        </mxCell>
        <mxCell id="yimpczpQPqt2kt8ZRVUJ-8" value="" style="endArrow=none;html=1;rounded=0;startArrow=none;startFill=0;edgeStyle=orthogonalEdgeStyle;" edge="1" parent="1">
          <mxGeometry width="50" height="50" relative="1" as="geometry">
            <mxPoint x="-165" y="321.2499999999998" as="sourcePoint" />
            <mxPoint x="-165" y="340.2499999999998" as="targetPoint" />
          </mxGeometry>
        </mxCell>
        <mxCell id="yimpczpQPqt2kt8ZRVUJ-9" value="carta singola" style="rounded=0;whiteSpace=wrap;html=1;" vertex="1" parent="1">
          <mxGeometry x="-225" y="339.9999999999998" width="100" height="51.25" as="geometry" />
        </mxCell>
        <mxCell id="yimpczpQPqt2kt8ZRVUJ-10" value="blister&lt;div&gt;ufficiale&lt;/div&gt;" style="rounded=0;whiteSpace=wrap;html=1;" vertex="1" parent="1">
          <mxGeometry x="63" y="339.3799999999999" width="80" height="51.87" as="geometry" />
        </mxCell>
        <mxCell id="yimpczpQPqt2kt8ZRVUJ-11" value="ID" style="text;html=1;align=center;verticalAlign=middle;whiteSpace=wrap;rounded=0;" vertex="1" parent="1">
          <mxGeometry x="-130" y="264.9999999999998" width="30" height="12.5" as="geometry" />
        </mxCell>
        <mxCell id="yimpczpQPqt2kt8ZRVUJ-12" value="" style="endArrow=none;html=1;rounded=0;exitX=-0.001;exitY=0.293;exitDx=0;exitDy=0;exitPerimeter=0;" edge="1" parent="1" target="yimpczpQPqt2kt8ZRVUJ-13">
          <mxGeometry width="50" height="50" relative="1" as="geometry">
            <mxPoint x="-225.0999999999999" y="345.64624999999955" as="sourcePoint" />
            <mxPoint x="-205.72000000000003" y="369.1299999999999" as="targetPoint" />
          </mxGeometry>
        </mxCell>
        <mxCell id="yimpczpQPqt2kt8ZRVUJ-13" value="" style="ellipse;whiteSpace=wrap;html=1;aspect=fixed;fillColor=#FFFFFF;strokeColor=#000000;" vertex="1" parent="1">
          <mxGeometry x="-265.72" y="340.6299999999999" width="10" height="10" as="geometry" />
        </mxCell>
        <mxCell id="yimpczpQPqt2kt8ZRVUJ-14" value="nome" style="text;html=1;align=center;verticalAlign=middle;whiteSpace=wrap;rounded=0;" vertex="1" parent="1">
          <mxGeometry x="-300" y="339.3799999999999" width="30" height="12.5" as="geometry" />
        </mxCell>
        <mxCell id="yimpczpQPqt2kt8ZRVUJ-15" value="" style="shape=flexArrow;endArrow=classic;html=1;rounded=0;entryX=0.5;entryY=1;entryDx=0;entryDy=0;strokeColor=#000000;fillColor=none;" edge="1" parent="1">
          <mxGeometry width="50" height="50" relative="1" as="geometry">
            <mxPoint x="-175.43000000000006" y="431.2499999999998" as="sourcePoint" />
            <mxPoint x="-175.6199999999999" y="389.9999999999998" as="targetPoint" />
          </mxGeometry>
        </mxCell>
        <mxCell id="yimpczpQPqt2kt8ZRVUJ-16" value="condizione" style="text;html=1;align=center;verticalAlign=middle;whiteSpace=wrap;rounded=0;" vertex="1" parent="1">
          <mxGeometry x="-310" y="378.75" width="30" height="12.5" as="geometry" />
        </mxCell>
        <mxCell id="yimpczpQPqt2kt8ZRVUJ-17" value="carta gradata" style="rounded=0;whiteSpace=wrap;html=1;" vertex="1" parent="1">
          <mxGeometry x="-225" y="431.2499999999998" width="100" height="50" as="geometry" />
        </mxCell>
        <mxCell id="yimpczpQPqt2kt8ZRVUJ-18" value="" style="endArrow=none;html=1;rounded=0;entryX=0;entryY=0.5;entryDx=0;entryDy=0;" edge="1" parent="1" target="yimpczpQPqt2kt8ZRVUJ-1">
          <mxGeometry width="50" height="50" relative="1" as="geometry">
            <mxPoint x="-175" y="209.99999999999977" as="sourcePoint" />
            <mxPoint x="-135" y="194.99999999999977" as="targetPoint" />
          </mxGeometry>
        </mxCell>
        <mxCell id="yimpczpQPqt2kt8ZRVUJ-19" value="appartiene" style="rhombus;whiteSpace=wrap;html=1;" vertex="1" parent="1">
          <mxGeometry x="-265" y="187.49999999999977" width="90" height="45" as="geometry" />
        </mxCell>
        <mxCell id="yimpczpQPqt2kt8ZRVUJ-20" value="(0,1)" style="text;html=1;align=center;verticalAlign=middle;whiteSpace=wrap;rounded=0;" vertex="1" parent="1">
          <mxGeometry x="-165" y="194.99999999999977" width="40" height="10" as="geometry" />
        </mxCell>
        <mxCell id="yimpczpQPqt2kt8ZRVUJ-21" value="" style="endArrow=none;html=1;rounded=0;" edge="1" parent="1">
          <mxGeometry width="50" height="50" relative="1" as="geometry">
            <mxPoint x="-221" y="154.99999999999977" as="sourcePoint" />
            <mxPoint x="-220.72000000000003" y="187.5" as="targetPoint" />
          </mxGeometry>
        </mxCell>
        <mxCell id="yimpczpQPqt2kt8ZRVUJ-22" value="espansione" style="rounded=0;whiteSpace=wrap;html=1;" vertex="1" parent="1">
          <mxGeometry x="-256" y="114.99999999999977" width="71" height="40" as="geometry" />
        </mxCell>
        <mxCell id="yimpczpQPqt2kt8ZRVUJ-23" value="(0, N)" style="text;html=1;align=center;verticalAlign=middle;whiteSpace=wrap;rounded=0;" vertex="1" parent="1">
          <mxGeometry x="-222" y="164.99999999999977" width="40" height="10" as="geometry" />
        </mxCell>
        <mxCell id="yimpczpQPqt2kt8ZRVUJ-24" value="promozione bustine" style="rounded=0;whiteSpace=wrap;html=1;" vertex="1" parent="1">
          <mxGeometry x="25" y="431.2499999999998" width="86" height="50" as="geometry" />
        </mxCell>
        <mxCell id="yimpczpQPqt2kt8ZRVUJ-25" value="" style="endArrow=none;html=1;rounded=0;" edge="1" parent="1">
          <mxGeometry width="50" height="50" relative="1" as="geometry">
            <mxPoint x="-255" y="370.1300000000001" as="sourcePoint" />
            <mxPoint x="-225" y="369.8800000000001" as="targetPoint" />
          </mxGeometry>
        </mxCell>
        <mxCell id="yimpczpQPqt2kt8ZRVUJ-26" value="" style="ellipse;whiteSpace=wrap;html=1;" vertex="1" parent="1">
          <mxGeometry x="-265" y="365.01" width="10" height="10" as="geometry" />
        </mxCell>
        <mxCell id="yimpczpQPqt2kt8ZRVUJ-27" value="" style="endArrow=none;html=1;rounded=0;" edge="1" parent="1">
          <mxGeometry width="50" height="50" relative="1" as="geometry">
            <mxPoint x="-255" y="357" as="sourcePoint" />
            <mxPoint x="-225" y="356.75" as="targetPoint" />
          </mxGeometry>
        </mxCell>
        <mxCell id="yimpczpQPqt2kt8ZRVUJ-28" value="" style="ellipse;whiteSpace=wrap;html=1;" vertex="1" parent="1">
          <mxGeometry x="-265" y="351.8799999999999" width="10" height="10" as="geometry" />
        </mxCell>
        <mxCell id="yimpczpQPqt2kt8ZRVUJ-29" value="" style="endArrow=none;html=1;rounded=0;" edge="1" parent="1">
          <mxGeometry width="50" height="50" relative="1" as="geometry">
            <mxPoint x="-255" y="387.1199999999999" as="sourcePoint" />
            <mxPoint x="-225" y="386.8699999999999" as="targetPoint" />
          </mxGeometry>
        </mxCell>
        <mxCell id="yimpczpQPqt2kt8ZRVUJ-30" value="(0,1)" style="edgeLabel;html=1;align=center;verticalAlign=middle;resizable=0;points=[];" connectable="0" vertex="1" parent="yimpczpQPqt2kt8ZRVUJ-29">
          <mxGeometry x="-0.007" relative="1" as="geometry">
            <mxPoint as="offset" />
          </mxGeometry>
        </mxCell>
        <mxCell id="yimpczpQPqt2kt8ZRVUJ-31" value="" style="ellipse;whiteSpace=wrap;html=1;" vertex="1" parent="1">
          <mxGeometry x="-265" y="381.25" width="10" height="10" as="geometry" />
        </mxCell>
        <mxCell id="yimpczpQPqt2kt8ZRVUJ-32" value="numero" style="text;html=1;align=center;verticalAlign=middle;whiteSpace=wrap;rounded=0;" vertex="1" parent="1">
          <mxGeometry x="-320" y="340.6299999999999" width="60" height="30" as="geometry" />
        </mxCell>
        <mxCell id="yimpczpQPqt2kt8ZRVUJ-33" value="prezzo" style="text;html=1;align=center;verticalAlign=middle;whiteSpace=wrap;rounded=0;" vertex="1" parent="1">
          <mxGeometry x="-315" y="351.8799999999999" width="60" height="30" as="geometry" />
        </mxCell>
        <mxCell id="yimpczpQPqt2kt8ZRVUJ-34" value="ID" style="text;html=1;align=center;verticalAlign=middle;whiteSpace=wrap;rounded=0;" vertex="1" parent="1">
          <mxGeometry x="-197" y="67.49999999999977" width="10" height="10" as="geometry" />
        </mxCell>
        <mxCell id="yimpczpQPqt2kt8ZRVUJ-35" value="" style="ellipse;whiteSpace=wrap;html=1;" vertex="1" parent="1">
          <mxGeometry x="-227" y="84.99999999999977" width="10" height="10" as="geometry" />
        </mxCell>
        <mxCell id="yimpczpQPqt2kt8ZRVUJ-36" value="data uscita" style="text;html=1;align=center;verticalAlign=middle;whiteSpace=wrap;rounded=0;" vertex="1" parent="1">
          <mxGeometry x="-245" y="54.99999999999977" width="40" height="30" as="geometry" />
        </mxCell>
        <mxCell id="yimpczpQPqt2kt8ZRVUJ-37" value="" style="ellipse;whiteSpace=wrap;html=1;" vertex="1" parent="1">
          <mxGeometry x="-252" y="84.99999999999977" width="10" height="10" as="geometry" />
        </mxCell>
        <mxCell id="yimpczpQPqt2kt8ZRVUJ-38" value="regione" style="text;html=1;align=center;verticalAlign=middle;whiteSpace=wrap;rounded=0;" vertex="1" parent="1">
          <mxGeometry x="-285" y="67.49999999999977" width="30" height="10" as="geometry" />
        </mxCell>
        <mxCell id="yimpczpQPqt2kt8ZRVUJ-39" value="" style="ellipse;whiteSpace=wrap;html=1;" vertex="1" parent="1">
          <mxGeometry x="-225" y="501.2499999999998" width="10" height="10" as="geometry" />
        </mxCell>
        <mxCell id="yimpczpQPqt2kt8ZRVUJ-40" value="" style="ellipse;whiteSpace=wrap;html=1;" vertex="1" parent="1">
          <mxGeometry x="-185" y="501.2499999999998" width="10" height="10" as="geometry" />
        </mxCell>
        <mxCell id="yimpczpQPqt2kt8ZRVUJ-41" value="" style="ellipse;whiteSpace=wrap;html=1;" vertex="1" parent="1">
          <mxGeometry x="-145" y="501.2499999999998" width="10" height="10" as="geometry" />
        </mxCell>
        <mxCell id="yimpczpQPqt2kt8ZRVUJ-42" value="ente gradatore" style="text;html=1;align=center;verticalAlign=middle;whiteSpace=wrap;rounded=0;" vertex="1" parent="1">
          <mxGeometry x="-250" y="511.2499999999998" width="45" height="30" as="geometry" />
        </mxCell>
        <mxCell id="yimpczpQPqt2kt8ZRVUJ-43" value="voto" style="text;html=1;align=center;verticalAlign=middle;whiteSpace=wrap;rounded=0;" vertex="1" parent="1">
          <mxGeometry x="-210" y="501.2499999999998" width="60" height="30" as="geometry" />
        </mxCell>
        <mxCell id="yimpczpQPqt2kt8ZRVUJ-44" value="ID certificazione" style="text;html=1;align=center;verticalAlign=middle;whiteSpace=wrap;rounded=0;" vertex="1" parent="1">
          <mxGeometry x="-165" y="511.2499999999998" width="60" height="30" as="geometry" />
        </mxCell>
        <mxCell id="yimpczpQPqt2kt8ZRVUJ-45" value="" style="endArrow=none;html=1;rounded=0;exitX=0.5;exitY=0;exitDx=0;exitDy=0;" edge="1" parent="1" source="yimpczpQPqt2kt8ZRVUJ-39">
          <mxGeometry width="50" height="50" relative="1" as="geometry">
            <mxPoint x="-220.18000000000006" y="511.2499999999998" as="sourcePoint" />
            <mxPoint x="-220.18000000000006" y="481.2499999999998" as="targetPoint" />
          </mxGeometry>
        </mxCell>
        <mxCell id="yimpczpQPqt2kt8ZRVUJ-46" value="" style="endArrow=none;html=1;rounded=0;exitX=0.5;exitY=0;exitDx=0;exitDy=0;" edge="1" parent="1">
          <mxGeometry width="50" height="50" relative="1" as="geometry">
            <mxPoint x="-180" y="501.2499999999998" as="sourcePoint" />
            <mxPoint x="-180.18000000000006" y="481.2499999999998" as="targetPoint" />
          </mxGeometry>
        </mxCell>
        <mxCell id="yimpczpQPqt2kt8ZRVUJ-47" value="" style="endArrow=none;html=1;rounded=0;exitX=0.5;exitY=0;exitDx=0;exitDy=0;" edge="1" parent="1">
          <mxGeometry width="50" height="50" relative="1" as="geometry">
            <mxPoint x="-139.81999999999994" y="501.2499999999998" as="sourcePoint" />
            <mxPoint x="-140" y="481.2499999999998" as="targetPoint" />
          </mxGeometry>
        </mxCell>
        <mxCell id="yimpczpQPqt2kt8ZRVUJ-48" value="" style="ellipse;whiteSpace=wrap;html=1;" vertex="1" parent="1">
          <mxGeometry x="351.8899999999999" y="330.62999999999977" width="10" height="10" as="geometry" />
        </mxCell>
        <mxCell id="yimpczpQPqt2kt8ZRVUJ-49" value="quantità" style="text;html=1;align=center;verticalAlign=middle;whiteSpace=wrap;rounded=0;" vertex="1" parent="1">
          <mxGeometry x="359.1700000000003" y="318.75999999999976" width="60" height="30" as="geometry" />
        </mxCell>
        <mxCell id="yimpczpQPqt2kt8ZRVUJ-50" value="" style="ellipse;whiteSpace=wrap;html=1;aspect=fixed;" vertex="1" parent="1">
          <mxGeometry x="131" y="441.2499999999998" width="10" height="10" as="geometry" />
        </mxCell>
        <mxCell id="yimpczpQPqt2kt8ZRVUJ-51" value="" style="endArrow=none;html=1;rounded=0;" edge="1" parent="1">
          <mxGeometry width="50" height="50" relative="1" as="geometry">
            <mxPoint x="111" y="446.1399999999999" as="sourcePoint" />
            <mxPoint x="131" y="446.1399999999999" as="targetPoint" />
          </mxGeometry>
        </mxCell>
        <mxCell id="yimpczpQPqt2kt8ZRVUJ-52" value="" style="ellipse;whiteSpace=wrap;html=1;aspect=fixed;" vertex="1" parent="1">
          <mxGeometry x="131" y="461.2499999999998" width="10" height="10" as="geometry" />
        </mxCell>
        <mxCell id="yimpczpQPqt2kt8ZRVUJ-53" value="" style="endArrow=none;html=1;rounded=0;" edge="1" parent="1">
          <mxGeometry width="50" height="50" relative="1" as="geometry">
            <mxPoint x="111" y="466.1399999999999" as="sourcePoint" />
            <mxPoint x="131" y="466.1399999999999" as="targetPoint" />
          </mxGeometry>
        </mxCell>
        <mxCell id="yimpczpQPqt2kt8ZRVUJ-54" value="quantità" style="text;html=1;align=center;verticalAlign=middle;whiteSpace=wrap;rounded=0;" vertex="1" parent="1">
          <mxGeometry x="141" y="431.2499999999998" width="60" height="30" as="geometry" />
        </mxCell>
        <mxCell id="yimpczpQPqt2kt8ZRVUJ-55" value="sconto percentuale" style="text;html=1;align=center;verticalAlign=middle;whiteSpace=wrap;rounded=0;" vertex="1" parent="1">
          <mxGeometry x="141" y="461.2499999999998" width="60" height="30" as="geometry" />
        </mxCell>
        <mxCell id="yimpczpQPqt2kt8ZRVUJ-56" value="" style="endArrow=none;html=1;rounded=0;" edge="1" parent="1">
          <mxGeometry width="50" height="50" relative="1" as="geometry">
            <mxPoint x="97.57999999999993" y="501.2499999999998" as="sourcePoint" />
            <mxPoint x="97.57999999999993" y="481.2499999999998" as="targetPoint" />
          </mxGeometry>
        </mxCell>
        <mxCell id="yimpczpQPqt2kt8ZRVUJ-57" value="" style="ellipse;whiteSpace=wrap;html=1;aspect=fixed;fillColor=#000000;" vertex="1" parent="1">
          <mxGeometry x="92.88000000000011" y="501.2499999999998" width="10" height="10" as="geometry" />
        </mxCell>
        <mxCell id="yimpczpQPqt2kt8ZRVUJ-58" value="ID promozione" style="text;html=1;align=center;verticalAlign=middle;whiteSpace=wrap;rounded=0;" vertex="1" parent="1">
          <mxGeometry x="70.45000000000005" y="501.25" width="82.11" height="30" as="geometry" />
        </mxCell>
        <mxCell id="yimpczpQPqt2kt8ZRVUJ-59" value="" style="endArrow=none;html=1;rounded=0;entryX=0.5;entryY=1;entryDx=0;entryDy=0;exitX=0.5;exitY=0;exitDx=0;exitDy=0;" edge="1" parent="1" source="yimpczpQPqt2kt8ZRVUJ-60" target="yimpczpQPqt2kt8ZRVUJ-6">
          <mxGeometry width="50" height="50" relative="1" as="geometry">
            <mxPoint x="-75" y="431.2499999999998" as="sourcePoint" />
            <mxPoint x="-66" y="391.2499999999998" as="targetPoint" />
          </mxGeometry>
        </mxCell>
        <mxCell id="yimpczpQPqt2kt8ZRVUJ-60" value="applicazione" style="rhombus;whiteSpace=wrap;html=1;" vertex="1" parent="1">
          <mxGeometry x="-117" y="431.2499999999998" width="82" height="50" as="geometry" />
        </mxCell>
        <mxCell id="yimpczpQPqt2kt8ZRVUJ-61" value="" style="endArrow=none;html=1;rounded=0;" edge="1" parent="1">
          <mxGeometry width="50" height="50" relative="1" as="geometry">
            <mxPoint x="-35" y="455.9499999999998" as="sourcePoint" />
            <mxPoint x="24.99000000000001" y="455.9499999999998" as="targetPoint" />
          </mxGeometry>
        </mxCell>
        <mxCell id="yimpczpQPqt2kt8ZRVUJ-62" value="(0, N)" style="text;html=1;align=center;verticalAlign=middle;whiteSpace=wrap;rounded=0;" vertex="1" parent="1">
          <mxGeometry x="-86" y="396.2499999999998" width="60" height="30" as="geometry" />
        </mxCell>
        <mxCell id="yimpczpQPqt2kt8ZRVUJ-63" value="(1, N)" style="text;html=1;align=center;verticalAlign=middle;whiteSpace=wrap;rounded=0;" vertex="1" parent="1">
          <mxGeometry x="-40" y="431.2499999999998" width="60" height="30" as="geometry" />
        </mxCell>
        <mxCell id="yimpczpQPqt2kt8ZRVUJ-64" value="Ordine" style="rounded=0;whiteSpace=wrap;html=1;" vertex="1" parent="1">
          <mxGeometry x="190.88999999999987" y="27.499999999999773" width="96" height="40" as="geometry" />
        </mxCell>
        <mxCell id="yimpczpQPqt2kt8ZRVUJ-65" value="" style="endArrow=none;html=1;rounded=0;" edge="1" parent="1" target="yimpczpQPqt2kt8ZRVUJ-66">
          <mxGeometry width="50" height="50" relative="1" as="geometry">
            <mxPoint x="267.8699999999999" y="27.499999999999773" as="sourcePoint" />
            <mxPoint x="267.8699999999999" y="7.499999999999773" as="targetPoint" />
          </mxGeometry>
        </mxCell>
        <mxCell id="yimpczpQPqt2kt8ZRVUJ-66" value="" style="ellipse;whiteSpace=wrap;html=1;aspect=fixed;fillColor=#000000;" vertex="1" parent="1">
          <mxGeometry x="262.8800000000001" y="-2.5000000000002274" width="10" height="10" as="geometry" />
        </mxCell>
        <mxCell id="yimpczpQPqt2kt8ZRVUJ-67" value="ID" style="text;html=1;align=center;verticalAlign=middle;whiteSpace=wrap;rounded=0;" vertex="1" parent="1">
          <mxGeometry x="257.8899999999999" y="-23.12000000000012" width="20" height="11.25" as="geometry" />
        </mxCell>
        <mxCell id="yimpczpQPqt2kt8ZRVUJ-68" value="" style="ellipse;whiteSpace=wrap;html=1;aspect=fixed;" vertex="1" parent="1">
          <mxGeometry x="231.8800000000001" y="-2.5000000000002274" width="10" height="10" as="geometry" />
        </mxCell>
        <mxCell id="yimpczpQPqt2kt8ZRVUJ-69" value="" style="ellipse;whiteSpace=wrap;html=1;fillColor=#000000;" vertex="1" parent="1">
          <mxGeometry x="-110" y="254.99999999999977" width="10" height="10" as="geometry" />
        </mxCell>
        <mxCell id="yimpczpQPqt2kt8ZRVUJ-70" value="" style="ellipse;whiteSpace=wrap;html=1;aspect=fixed;fillColor=light-dark(#FFFFFF,#EDEDED);strokeColor=#000000;" vertex="1" parent="1">
          <mxGeometry x="-92.99000000000001" y="254.99999999999977" width="10" height="10" as="geometry" />
        </mxCell>
        <mxCell id="yimpczpQPqt2kt8ZRVUJ-71" value="prezzo unitario" style="text;html=1;align=center;verticalAlign=middle;whiteSpace=wrap;rounded=0;" vertex="1" parent="1">
          <mxGeometry x="-110" y="263.1199999999998" width="60" height="30" as="geometry" />
        </mxCell>
        <mxCell id="yimpczpQPqt2kt8ZRVUJ-72" value="" style="endArrow=none;html=1;rounded=0;" edge="1" parent="1">
          <mxGeometry width="50" height="50" relative="1" as="geometry">
            <mxPoint x="-88.26999999999998" y="234.99999999999977" as="sourcePoint" />
            <mxPoint x="-88.27999999999997" y="254.99999999999977" as="targetPoint" />
          </mxGeometry>
        </mxCell>
        <mxCell id="yimpczpQPqt2kt8ZRVUJ-73" value="" style="endArrow=none;html=1;rounded=0;" edge="1" parent="1">
          <mxGeometry width="50" height="50" relative="1" as="geometry">
            <mxPoint x="-104.99000000000001" y="234.99999999999977" as="sourcePoint" />
            <mxPoint x="-105" y="254.99999999999977" as="targetPoint" />
          </mxGeometry>
        </mxCell>
        <mxCell id="yimpczpQPqt2kt8ZRVUJ-74" value="data ordine" style="text;html=1;align=center;verticalAlign=middle;whiteSpace=wrap;rounded=0;" vertex="1" parent="1">
          <mxGeometry x="204.8800000000001" y="-32.5" width="60" height="30" as="geometry" />
        </mxCell>
        <mxCell id="yimpczpQPqt2kt8ZRVUJ-75" value="" style="endArrow=none;html=1;rounded=0;" edge="1" parent="1">
          <mxGeometry width="50" height="50" relative="1" as="geometry">
            <mxPoint x="236.55999999999995" y="7.499999999999773" as="sourcePoint" />
            <mxPoint x="236.54999999999995" y="27.499999999999773" as="targetPoint" />
          </mxGeometry>
        </mxCell>
        <mxCell id="yimpczpQPqt2kt8ZRVUJ-76" value="" style="endArrow=none;html=1;rounded=0;" edge="1" parent="1" target="yimpczpQPqt2kt8ZRVUJ-77">
          <mxGeometry width="50" height="50" relative="1" as="geometry">
            <mxPoint x="201.8699999999999" y="27.499999999999773" as="sourcePoint" />
            <mxPoint x="201.8699999999999" y="7.499999999999773" as="targetPoint" />
          </mxGeometry>
        </mxCell>
        <mxCell id="yimpczpQPqt2kt8ZRVUJ-77" value="" style="ellipse;whiteSpace=wrap;html=1;aspect=fixed;" vertex="1" parent="1">
          <mxGeometry x="196.8800000000001" y="-2.5000000000002274" width="10" height="10" as="geometry" />
        </mxCell>
        <mxCell id="yimpczpQPqt2kt8ZRVUJ-78" value="stato" style="text;html=1;align=center;verticalAlign=middle;whiteSpace=wrap;rounded=0;" vertex="1" parent="1">
          <mxGeometry x="169.8800000000001" y="-32.49000000000024" width="60" height="30" as="geometry" />
        </mxCell>
        <mxCell id="yimpczpQPqt2kt8ZRVUJ-79" value="" style="endArrow=none;html=1;rounded=0;" edge="1" parent="1">
          <mxGeometry width="50" height="50" relative="1" as="geometry">
            <mxPoint x="-135.5" y="42.49999999999977" as="sourcePoint" />
            <mxPoint x="-113.49000000000001" y="42.49999999999977" as="targetPoint" />
          </mxGeometry>
        </mxCell>
        <mxCell id="yimpczpQPqt2kt8ZRVUJ-80" value="" style="ellipse;whiteSpace=wrap;html=1;" vertex="1" parent="1">
          <mxGeometry x="-143.5" y="37.49999999999977" width="10" height="10" as="geometry" />
        </mxCell>
        <mxCell id="yimpczpQPqt2kt8ZRVUJ-81" value="quantità" style="text;html=1;align=center;verticalAlign=middle;whiteSpace=wrap;rounded=0;" vertex="1" parent="1">
          <mxGeometry x="-200.5" y="27.499999999999773" width="60" height="30" as="geometry" />
        </mxCell>
        <mxCell id="yimpczpQPqt2kt8ZRVUJ-82" value="" style="endArrow=none;html=1;rounded=0;entryX=0;entryY=0.5;entryDx=0;entryDy=0;" edge="1" parent="1" target="yimpczpQPqt2kt8ZRVUJ-84">
          <mxGeometry width="50" height="50" relative="1" as="geometry">
            <mxPoint x="286.8899999999999" y="47.09999999999968" as="sourcePoint" />
            <mxPoint x="355.8899999999999" y="47.08999999999969" as="targetPoint" />
          </mxGeometry>
        </mxCell>
        <mxCell id="yimpczpQPqt2kt8ZRVUJ-83" value="(0, 1)" style="edgeLabel;html=1;align=center;verticalAlign=middle;resizable=0;points=[];" connectable="0" vertex="1" parent="yimpczpQPqt2kt8ZRVUJ-82">
          <mxGeometry x="-0.009" y="-1" relative="1" as="geometry">
            <mxPoint as="offset" />
          </mxGeometry>
        </mxCell>
        <mxCell id="yimpczpQPqt2kt8ZRVUJ-84" value="acquistato da" style="rhombus;whiteSpace=wrap;html=1;" vertex="1" parent="1">
          <mxGeometry x="380.3899999999999" y="27.499999999999773" width="99" height="40" as="geometry" />
        </mxCell>
        <mxCell id="yimpczpQPqt2kt8ZRVUJ-85" value="" style="endArrow=none;html=1;rounded=0;entryX=0;entryY=0.5;entryDx=0;entryDy=0;exitX=1;exitY=0.5;exitDx=0;exitDy=0;" edge="1" parent="1" source="yimpczpQPqt2kt8ZRVUJ-84" target="yimpczpQPqt2kt8ZRVUJ-87">
          <mxGeometry width="50" height="50" relative="1" as="geometry">
            <mxPoint x="486.8899999999999" y="47.50999999999976" as="sourcePoint" />
            <mxPoint x="565.8899999999999" y="47.0799999999997" as="targetPoint" />
          </mxGeometry>
        </mxCell>
        <mxCell id="yimpczpQPqt2kt8ZRVUJ-86" value="(1, N)" style="edgeLabel;html=1;align=center;verticalAlign=middle;resizable=0;points=[];" connectable="0" vertex="1" parent="yimpczpQPqt2kt8ZRVUJ-85">
          <mxGeometry x="-0.0848" relative="1" as="geometry">
            <mxPoint as="offset" />
          </mxGeometry>
        </mxCell>
        <mxCell id="yimpczpQPqt2kt8ZRVUJ-87" value="Cliente" style="rounded=0;whiteSpace=wrap;html=1;" vertex="1" parent="1">
          <mxGeometry x="559.0100000000002" y="27.499999999999773" width="103.99" height="40" as="geometry" />
        </mxCell>
        <mxCell id="yimpczpQPqt2kt8ZRVUJ-88" value="" style="shape=flexArrow;endArrow=classic;html=1;rounded=0;strokeColor=#000000;fillColor=#000000;endWidth=17.142857142857142;endSize=3.571428571428571;entryX=0.5;entryY=1;entryDx=0;entryDy=0;" edge="1" parent="1" target="yimpczpQPqt2kt8ZRVUJ-64">
          <mxGeometry width="50" height="50" relative="1" as="geometry">
            <mxPoint x="239" y="94.99999999999977" as="sourcePoint" />
            <mxPoint x="239" y="74.99999999999977" as="targetPoint" />
          </mxGeometry>
        </mxCell>
        <mxCell id="yimpczpQPqt2kt8ZRVUJ-89" value="Privato" style="rounded=0;whiteSpace=wrap;html=1;" vertex="1" parent="1">
          <mxGeometry x="535.5" y="112.49999999999977" width="75" height="30" as="geometry" />
        </mxCell>
        <mxCell id="yimpczpQPqt2kt8ZRVUJ-90" value="" style="ellipse;whiteSpace=wrap;html=1;aspect=fixed;fillColor=#000000;" vertex="1" parent="1">
          <mxGeometry x="690.2400000000002" y="42.49999999999977" width="10" height="10" as="geometry" />
        </mxCell>
        <mxCell id="yimpczpQPqt2kt8ZRVUJ-91" value="" style="endArrow=none;html=1;rounded=0;exitX=1;exitY=0.5;exitDx=0;exitDy=0;" edge="1" parent="1" source="yimpczpQPqt2kt8ZRVUJ-87">
          <mxGeometry width="50" height="50" relative="1" as="geometry">
            <mxPoint x="695.1199999999999" y="72.48999999999978" as="sourcePoint" />
            <mxPoint x="690" y="47.5" as="targetPoint" />
          </mxGeometry>
        </mxCell>
        <mxCell id="yimpczpQPqt2kt8ZRVUJ-92" value="ID" style="text;html=1;align=center;verticalAlign=middle;whiteSpace=wrap;rounded=0;" vertex="1" parent="1">
          <mxGeometry x="665.2399999999998" y="17.5" width="60" height="30" as="geometry" />
        </mxCell>
        <mxCell id="yimpczpQPqt2kt8ZRVUJ-93" value="" style="endArrow=none;html=1;rounded=0;" edge="1" parent="1">
          <mxGeometry width="50" height="50" relative="1" as="geometry">
            <mxPoint x="513.5" y="117.29999999999973" as="sourcePoint" />
            <mxPoint x="535.5" y="117.29999999999973" as="targetPoint" />
          </mxGeometry>
        </mxCell>
        <mxCell id="yimpczpQPqt2kt8ZRVUJ-94" value="" style="ellipse;whiteSpace=wrap;html=1;" vertex="1" parent="1">
          <mxGeometry x="503.37999999999965" y="112.49999999999977" width="10" height="10" as="geometry" />
        </mxCell>
        <mxCell id="yimpczpQPqt2kt8ZRVUJ-95" value="nome" style="text;html=1;align=center;verticalAlign=middle;whiteSpace=wrap;rounded=0;" vertex="1" parent="1">
          <mxGeometry x="453.87999999999965" y="102.49999999999977" width="60" height="30" as="geometry" />
        </mxCell>
        <mxCell id="yimpczpQPqt2kt8ZRVUJ-96" value="" style="endArrow=none;html=1;rounded=0;exitX=1;exitY=1;exitDx=0;exitDy=0;" edge="1" parent="1">
          <mxGeometry width="50" height="50" relative="1" as="geometry">
            <mxPoint x="513.3799999999997" y="132.49999999999955" as="sourcePoint" />
            <mxPoint x="535.3799999999997" y="132.50999999999976" as="targetPoint" />
          </mxGeometry>
        </mxCell>
        <mxCell id="yimpczpQPqt2kt8ZRVUJ-97" value="" style="ellipse;whiteSpace=wrap;html=1;" vertex="1" parent="1">
          <mxGeometry x="503.87999999999965" y="127.50999999999976" width="10" height="10" as="geometry" />
        </mxCell>
        <mxCell id="yimpczpQPqt2kt8ZRVUJ-98" value="e-mail" style="text;html=1;align=center;verticalAlign=middle;whiteSpace=wrap;rounded=0;" vertex="1" parent="1">
          <mxGeometry x="452.1199999999999" y="117.50999999999976" width="60" height="30" as="geometry" />
        </mxCell>
        <mxCell id="yimpczpQPqt2kt8ZRVUJ-99" value="" style="ellipse;whiteSpace=wrap;html=1;fontStyle=1" vertex="1" parent="1">
          <mxGeometry x="536.5500000000002" y="79.99999999999977" width="10" height="10" as="geometry" />
        </mxCell>
        <mxCell id="yimpczpQPqt2kt8ZRVUJ-100" value="" style="ellipse;whiteSpace=wrap;html=1;" vertex="1" parent="1">
          <mxGeometry x="117.5" y="134.98999999999978" width="10" height="10" as="geometry" />
        </mxCell>
        <mxCell id="yimpczpQPqt2kt8ZRVUJ-101" value="" style="endArrow=none;html=1;rounded=0;fontStyle=1;entryX=0.5;entryY=1;entryDx=0;entryDy=0;exitX=0;exitY=1;exitDx=0;exitDy=0;" edge="1" parent="1" target="yimpczpQPqt2kt8ZRVUJ-99">
          <mxGeometry width="50" height="50" relative="1" as="geometry">
            <mxPoint x="541.3800000000001" y="112.49999999999977" as="sourcePoint" />
            <mxPoint x="540.2999999999997" y="102.49999999999977" as="targetPoint" />
          </mxGeometry>
        </mxCell>
        <mxCell id="yimpczpQPqt2kt8ZRVUJ-102" value="(0,1)" style="edgeLabel;html=1;align=center;verticalAlign=middle;resizable=0;points=[];" connectable="0" vertex="1" parent="yimpczpQPqt2kt8ZRVUJ-101">
          <mxGeometry x="0.3969" y="-1" relative="1" as="geometry">
            <mxPoint as="offset" />
          </mxGeometry>
        </mxCell>
        <mxCell id="yimpczpQPqt2kt8ZRVUJ-103" value="telefono" style="text;html=1;align=center;verticalAlign=middle;whiteSpace=wrap;rounded=0;" vertex="1" parent="1">
          <mxGeometry x="491.8899999999999" y="75" width="43.61" height="20" as="geometry" />
        </mxCell>
        <mxCell id="yimpczpQPqt2kt8ZRVUJ-104" value="&lt;div style=&quot;line-height: 100%;&quot;&gt;indirizzo spedizione&lt;/div&gt;" style="text;html=1;align=center;verticalAlign=middle;whiteSpace=wrap;rounded=0;" vertex="1" parent="1">
          <mxGeometry x="52.61999999999989" y="134.9799999999998" width="78.38" height="30.02" as="geometry" />
        </mxCell>
        <mxCell id="yimpczpQPqt2kt8ZRVUJ-105" value="" style="endArrow=none;html=1;rounded=0;exitX=1;exitY=0.5;exitDx=0;exitDy=0;entryX=0.033;entryY=0.643;entryDx=0;entryDy=0;entryPerimeter=0;" edge="1" parent="1" source="yimpczpQPqt2kt8ZRVUJ-100">
          <mxGeometry width="50" height="50" relative="1" as="geometry">
            <mxPoint x="122.5" y="129.99999999999977" as="sourcePoint" />
            <mxPoint x="163" y="139.27999999999963" as="targetPoint" />
          </mxGeometry>
        </mxCell>
        <mxCell id="yimpczpQPqt2kt8ZRVUJ-106" value="" style="endArrow=none;html=1;rounded=0;exitX=0.53;exitY=-0.005;exitDx=0;exitDy=0;exitPerimeter=0;" edge="1" parent="1" source="yimpczpQPqt2kt8ZRVUJ-7">
          <mxGeometry width="50" height="50" relative="1" as="geometry">
            <mxPoint x="-35" y="370.6299999999999" as="sourcePoint" />
            <mxPoint x="15" y="320.6299999999999" as="targetPoint" />
          </mxGeometry>
        </mxCell>
        <mxCell id="yimpczpQPqt2kt8ZRVUJ-107" value="" style="endArrow=none;html=1;rounded=0;exitX=0.443;exitY=-0.018;exitDx=0;exitDy=0;exitPerimeter=0;" edge="1" parent="1" source="yimpczpQPqt2kt8ZRVUJ-1">
          <mxGeometry width="50" height="50" relative="1" as="geometry">
            <mxPoint x="140.88999999999987" y="92.47999999999979" as="sourcePoint" />
            <mxPoint x="190.88999999999987" y="42.47999999999979" as="targetPoint" />
            <Array as="points">
              <mxPoint x="-57" y="41.99999999999977" />
            </Array>
          </mxGeometry>
        </mxCell>
        <mxCell id="yimpczpQPqt2kt8ZRVUJ-108" value="(1, N)" style="edgeLabel;html=1;align=center;verticalAlign=middle;resizable=0;points=[];" connectable="0" vertex="1" parent="yimpczpQPqt2kt8ZRVUJ-107">
          <mxGeometry x="0.5185" relative="1" as="geometry">
            <mxPoint as="offset" />
          </mxGeometry>
        </mxCell>
        <mxCell id="yimpczpQPqt2kt8ZRVUJ-109" value="(0, N)" style="edgeLabel;html=1;align=center;verticalAlign=middle;resizable=0;points=[];" connectable="0" vertex="1" parent="yimpczpQPqt2kt8ZRVUJ-107">
          <mxGeometry x="-0.7097" relative="1" as="geometry">
            <mxPoint as="offset" />
          </mxGeometry>
        </mxCell>
        <mxCell id="yimpczpQPqt2kt8ZRVUJ-110" value="contiene" style="rhombus;whiteSpace=wrap;html=1;" vertex="1" parent="1">
          <mxGeometry x="-115" y="17.499999999999773" width="118" height="50" as="geometry" />
        </mxCell>
        <mxCell id="yimpczpQPqt2kt8ZRVUJ-111" value="" style="endArrow=none;html=1;rounded=0;" edge="1" parent="1">
          <mxGeometry width="50" height="50" relative="1" as="geometry">
            <mxPoint x="199" y="114.98999999999978" as="sourcePoint" />
            <mxPoint x="282.8800000000001" y="114.98999999999978" as="targetPoint" />
            <Array as="points">
              <mxPoint x="199" y="94.98999999999978" />
              <mxPoint x="283" y="94.98999999999978" />
            </Array>
          </mxGeometry>
        </mxCell>
        <mxCell id="yimpczpQPqt2kt8ZRVUJ-112" value="online" style="rounded=0;whiteSpace=wrap;html=1;" vertex="1" parent="1">
          <mxGeometry x="163" y="114.99999999999977" width="70" height="30" as="geometry" />
        </mxCell>
        <mxCell id="yimpczpQPqt2kt8ZRVUJ-113" value="in negozio" style="rounded=0;whiteSpace=wrap;html=1;" vertex="1" parent="1">
          <mxGeometry x="253" y="114.99999999999977" width="70" height="30" as="geometry" />
        </mxCell>
        <mxCell id="yimpczpQPqt2kt8ZRVUJ-114" value="" style="endArrow=none;html=1;rounded=0;entryX=-0.004;entryY=0.878;entryDx=0;entryDy=0;entryPerimeter=0;" edge="1" parent="1" target="yimpczpQPqt2kt8ZRVUJ-64">
          <mxGeometry width="50" height="50" relative="1" as="geometry">
            <mxPoint x="173" y="62.74999999999977" as="sourcePoint" />
            <mxPoint x="190" y="62.5" as="targetPoint" />
          </mxGeometry>
        </mxCell>
        <mxCell id="yimpczpQPqt2kt8ZRVUJ-115" value="" style="ellipse;whiteSpace=wrap;html=1;" vertex="1" parent="1">
          <mxGeometry x="163" y="57.49999999999977" width="10" height="10" as="geometry" />
        </mxCell>
        <mxCell id="yimpczpQPqt2kt8ZRVUJ-116" value="totale" style="text;html=1;align=center;verticalAlign=middle;whiteSpace=wrap;rounded=0;" vertex="1" parent="1">
          <mxGeometry x="113" y="47.49999999999977" width="60" height="30" as="geometry" />
        </mxCell>
        <mxCell id="yimpczpQPqt2kt8ZRVUJ-117" value="" style="shape=flexArrow;endArrow=classic;html=1;rounded=0;strokeColor=#000000;fillColor=none;endWidth=17.142857142857142;endSize=3.571428571428571;exitX=0.596;exitY=-0.032;exitDx=0;exitDy=0;exitPerimeter=0;" edge="1" parent="1">
          <mxGeometry width="50" height="50" relative="1" as="geometry">
            <mxPoint x="580.2000000000003" y="112.49999999999983" as="sourcePoint" />
            <mxPoint x="580" y="67.5" as="targetPoint" />
          </mxGeometry>
        </mxCell>
        <mxCell id="yimpczpQPqt2kt8ZRVUJ-118" value="" style="endArrow=none;html=1;rounded=0;exitX=1;exitY=0.5;exitDx=0;exitDy=0;" edge="1" parent="1">
          <mxGeometry width="50" height="50" relative="1" as="geometry">
            <mxPoint x="5" y="194.99999999999977" as="sourcePoint" />
            <mxPoint x="163" y="194.99999999999977" as="targetPoint" />
          </mxGeometry>
        </mxCell>
        <mxCell id="yimpczpQPqt2kt8ZRVUJ-119" value="(0, N)" style="edgeLabel;html=1;align=center;verticalAlign=middle;resizable=0;points=[];" connectable="0" vertex="1" parent="yimpczpQPqt2kt8ZRVUJ-118">
          <mxGeometry x="-0.2959" y="-1" relative="1" as="geometry">
            <mxPoint as="offset" />
          </mxGeometry>
        </mxCell>
        <mxCell id="yimpczpQPqt2kt8ZRVUJ-120" value="fornitura" style="rhombus;whiteSpace=wrap;html=1;" vertex="1" parent="1">
          <mxGeometry x="123" y="174.99999999999977" width="100" height="40" as="geometry" />
        </mxCell>
        <mxCell id="yimpczpQPqt2kt8ZRVUJ-121" value="" style="endArrow=none;html=1;rounded=0;entryX=1;entryY=0.5;entryDx=0;entryDy=0;exitX=0;exitY=0.5;exitDx=0;exitDy=0;" edge="1" parent="1" source="yimpczpQPqt2kt8ZRVUJ-48" target="yimpczpQPqt2kt8ZRVUJ-127">
          <mxGeometry width="50" height="50" relative="1" as="geometry">
            <mxPoint x="261.6099999999999" y="364.2499999999998" as="sourcePoint" />
            <mxPoint x="238.20000000000005" y="338.74999999999955" as="targetPoint" />
          </mxGeometry>
        </mxCell>
        <mxCell id="yimpczpQPqt2kt8ZRVUJ-122" value="(0, N)" style="endArrow=none;html=1;rounded=0;exitX=1;exitY=0.5;exitDx=0;exitDy=0;" edge="1" parent="1" source="yimpczpQPqt2kt8ZRVUJ-120">
          <mxGeometry width="50" height="50" relative="1" as="geometry">
            <mxPoint x="223" y="194.99999999999977" as="sourcePoint" />
            <mxPoint x="383" y="194.99999999999977" as="targetPoint" />
          </mxGeometry>
        </mxCell>
        <mxCell id="yimpczpQPqt2kt8ZRVUJ-123" value="Azienda" style="rounded=0;whiteSpace=wrap;html=1;" vertex="1" parent="1">
          <mxGeometry x="383.02999999999975" y="174.99999999999977" width="93.72" height="40" as="geometry" />
        </mxCell>
        <mxCell id="yimpczpQPqt2kt8ZRVUJ-124" value="" style="endArrow=none;html=1;rounded=0;" edge="1" parent="1">
          <mxGeometry width="50" height="50" relative="1" as="geometry">
            <mxPoint x="283.6899999999998" y="341.9999999999998" as="sourcePoint" />
            <mxPoint x="282.29999999999995" y="398.2499999999998" as="targetPoint" />
            <Array as="points">
              <mxPoint x="282.29999999999995" y="341.2499999999998" />
            </Array>
          </mxGeometry>
        </mxCell>
        <mxCell id="yimpczpQPqt2kt8ZRVUJ-125" value="" style="endArrow=none;html=1;rounded=0;" edge="1" parent="1" target="yimpczpQPqt2kt8ZRVUJ-127">
          <mxGeometry width="50" height="50" relative="1" as="geometry">
            <mxPoint y="235.5" as="sourcePoint" />
            <mxPoint x="303" y="284.9999999999998" as="targetPoint" />
            <Array as="points">
              <mxPoint y="277.5" />
              <mxPoint x="283" y="277.5" />
            </Array>
          </mxGeometry>
        </mxCell>
        <mxCell id="yimpczpQPqt2kt8ZRVUJ-126" value="(0, N)" style="edgeLabel;html=1;align=center;verticalAlign=middle;resizable=0;points=[];" connectable="0" vertex="1" parent="yimpczpQPqt2kt8ZRVUJ-125">
          <mxGeometry x="0.0335" y="-3" relative="1" as="geometry">
            <mxPoint as="offset" />
          </mxGeometry>
        </mxCell>
        <mxCell id="yimpczpQPqt2kt8ZRVUJ-127" value="situato" style="rhombus;whiteSpace=wrap;html=1;" vertex="1" parent="1">
          <mxGeometry x="236.49999999999977" y="311.2499999999998" width="93" height="47.5" as="geometry" />
        </mxCell>
        <mxCell id="yimpczpQPqt2kt8ZRVUJ-128" value="Magazzino" style="rounded=0;whiteSpace=wrap;html=1;" vertex="1" parent="1">
          <mxGeometry x="233" y="391.25" width="107" height="46.25" as="geometry" />
        </mxCell>
        <mxCell id="yimpczpQPqt2kt8ZRVUJ-129" value="(0, N)" style="text;html=1;align=center;verticalAlign=middle;whiteSpace=wrap;rounded=0;" vertex="1" parent="1">
          <mxGeometry x="269.4999999999998" y="361.2499999999998" width="60" height="30" as="geometry" />
        </mxCell>
        <mxCell id="yimpczpQPqt2kt8ZRVUJ-130" value="" style="endArrow=none;html=1;rounded=0;exitX=0.5;exitY=0;exitDx=0;exitDy=0;" edge="1" parent="1" source="yimpczpQPqt2kt8ZRVUJ-132">
          <mxGeometry width="50" height="50" relative="1" as="geometry">
            <mxPoint x="546.8899999999999" y="264.9999999999998" as="sourcePoint" />
            <mxPoint x="650" y="67.5" as="targetPoint" />
            <Array as="points">
              <mxPoint x="600" y="227.5" />
              <mxPoint x="650" y="227.5" />
            </Array>
          </mxGeometry>
        </mxCell>
        <mxCell id="yimpczpQPqt2kt8ZRVUJ-131" value="(0, 1)" style="edgeLabel;html=1;align=center;verticalAlign=middle;resizable=0;points=[];" connectable="0" vertex="1" parent="yimpczpQPqt2kt8ZRVUJ-130">
          <mxGeometry x="0.6818" y="-2" relative="1" as="geometry">
            <mxPoint as="offset" />
          </mxGeometry>
        </mxCell>
        <mxCell id="yimpczpQPqt2kt8ZRVUJ-132" value="registrato" style="rhombus;whiteSpace=wrap;html=1;" vertex="1" parent="1">
          <mxGeometry x="542.3400000000001" y="248.74999999999977" width="115.9" height="40" as="geometry" />
        </mxCell>
        <mxCell id="yimpczpQPqt2kt8ZRVUJ-133" value="Registrazione" style="rounded=0;whiteSpace=wrap;html=1;" vertex="1" parent="1">
          <mxGeometry x="560.29" y="318.75999999999976" width="80" height="26.24" as="geometry" />
        </mxCell>
        <mxCell id="yimpczpQPqt2kt8ZRVUJ-134" value="" style="ellipse;whiteSpace=wrap;html=1;fillColor=#000000;" vertex="1" parent="1">
          <mxGeometry x="-202" y="84.99999999999977" width="10.5" height="10" as="geometry" />
        </mxCell>
        <mxCell id="yimpczpQPqt2kt8ZRVUJ-135" value="" style="endArrow=none;html=1;rounded=0;entryX=0.5;entryY=1;entryDx=0;entryDy=0;" edge="1" parent="1" target="yimpczpQPqt2kt8ZRVUJ-37">
          <mxGeometry width="50" height="50" relative="1" as="geometry">
            <mxPoint x="-247" y="114.99999999999977" as="sourcePoint" />
            <mxPoint x="-177" y="64.99999999999977" as="targetPoint" />
          </mxGeometry>
        </mxCell>
        <mxCell id="yimpczpQPqt2kt8ZRVUJ-136" value="" style="endArrow=none;html=1;rounded=0;entryX=0.5;entryY=1;entryDx=0;entryDy=0;exitX=0.482;exitY=-0.008;exitDx=0;exitDy=0;exitPerimeter=0;" edge="1" parent="1" source="yimpczpQPqt2kt8ZRVUJ-22" target="yimpczpQPqt2kt8ZRVUJ-35">
          <mxGeometry width="50" height="50" relative="1" as="geometry">
            <mxPoint x="-227" y="114.99999999999977" as="sourcePoint" />
            <mxPoint x="-177" y="64.99999999999977" as="targetPoint" />
          </mxGeometry>
        </mxCell>
        <mxCell id="yimpczpQPqt2kt8ZRVUJ-137" value="" style="endArrow=none;html=1;rounded=0;exitX=0.829;exitY=0.003;exitDx=0;exitDy=0;exitPerimeter=0;" edge="1" parent="1" source="yimpczpQPqt2kt8ZRVUJ-22">
          <mxGeometry width="50" height="50" relative="1" as="geometry">
            <mxPoint x="-247" y="144.99999999999977" as="sourcePoint" />
            <mxPoint x="-197" y="94.99999999999977" as="targetPoint" />
          </mxGeometry>
        </mxCell>
        <mxCell id="yimpczpQPqt2kt8ZRVUJ-138" value="" style="endArrow=none;html=1;rounded=0;exitX=0.5;exitY=0;exitDx=0;exitDy=0;" edge="1" parent="1" source="yimpczpQPqt2kt8ZRVUJ-133">
          <mxGeometry width="50" height="50" relative="1" as="geometry">
            <mxPoint x="550.1199999999999" y="338.7499999999998" as="sourcePoint" />
            <mxPoint x="600.1199999999999" y="288.7499999999998" as="targetPoint" />
          </mxGeometry>
        </mxCell>
        <mxCell id="yimpczpQPqt2kt8ZRVUJ-139" value="(1, 1)" style="edgeLabel;html=1;align=center;verticalAlign=middle;resizable=0;points=[];" connectable="0" vertex="1" parent="yimpczpQPqt2kt8ZRVUJ-138">
          <mxGeometry x="0.0169" relative="1" as="geometry">
            <mxPoint as="offset" />
          </mxGeometry>
        </mxCell>
        <mxCell id="yimpczpQPqt2kt8ZRVUJ-140" value="" style="ellipse;whiteSpace=wrap;html=1;aspect=fixed;" vertex="1" parent="1">
          <mxGeometry x="516.6199999999999" y="446.2499999999998" width="10" height="10" as="geometry" />
        </mxCell>
        <mxCell id="yimpczpQPqt2kt8ZRVUJ-141" value="" style="endArrow=none;html=1;rounded=0;" edge="1" parent="1">
          <mxGeometry width="50" height="50" relative="1" as="geometry">
            <mxPoint x="521.5999999999999" y="446.2499999999998" as="sourcePoint" />
            <mxPoint x="521.4899999999998" y="420.00999999999976" as="targetPoint" />
          </mxGeometry>
        </mxCell>
        <mxCell id="yimpczpQPqt2kt8ZRVUJ-142" value="password" style="text;html=1;align=center;verticalAlign=middle;whiteSpace=wrap;rounded=0;" vertex="1" parent="1">
          <mxGeometry x="512.1199999999999" y="451.2499999999998" width="60" height="30" as="geometry" />
        </mxCell>
        <mxCell id="yimpczpQPqt2kt8ZRVUJ-143" value="" style="shape=flexArrow;endArrow=classic;html=1;rounded=0;strokeColor=#000000;fillColor=#000000;endWidth=17.142857142857142;endSize=3.571428571428571;entryX=0.5;entryY=1;entryDx=0;entryDy=0;" edge="1" parent="1">
          <mxGeometry width="50" height="50" relative="1" as="geometry">
            <mxPoint x="600.29" y="371.9999999999998" as="sourcePoint" />
            <mxPoint x="600.29" y="344.9999999999998" as="targetPoint" />
          </mxGeometry>
        </mxCell>
        <mxCell id="yimpczpQPqt2kt8ZRVUJ-144" value="" style="endArrow=none;html=1;rounded=0;" edge="1" parent="1">
          <mxGeometry width="50" height="50" relative="1" as="geometry">
            <mxPoint x="560.29" y="391.9899999999998" as="sourcePoint" />
            <mxPoint x="644.1700000000001" y="391.9899999999998" as="targetPoint" />
            <Array as="points">
              <mxPoint x="560.29" y="371.9899999999998" />
              <mxPoint x="644.29" y="371.9899999999998" />
            </Array>
          </mxGeometry>
        </mxCell>
        <mxCell id="yimpczpQPqt2kt8ZRVUJ-145" value="online" style="rounded=0;whiteSpace=wrap;html=1;" vertex="1" parent="1">
          <mxGeometry x="514.2400000000002" y="391.2499999999998" width="80" height="30" as="geometry" />
        </mxCell>
        <mxCell id="yimpczpQPqt2kt8ZRVUJ-146" value="carta fedeltà" style="rounded=0;whiteSpace=wrap;html=1;" vertex="1" parent="1">
          <mxGeometry x="613.2400000000002" y="391.2499999999998" width="80" height="30" as="geometry" />
        </mxCell>
        <mxCell id="yimpczpQPqt2kt8ZRVUJ-147" value="" style="endArrow=none;html=1;rounded=0;" edge="1" parent="1">
          <mxGeometry width="50" height="50" relative="1" as="geometry">
            <mxPoint x="640.29" y="331.7099999999998" as="sourcePoint" />
            <mxPoint x="656.23" y="331.7099999999998" as="targetPoint" />
          </mxGeometry>
        </mxCell>
        <mxCell id="yimpczpQPqt2kt8ZRVUJ-148" value="" style="ellipse;whiteSpace=wrap;html=1;" vertex="1" parent="1">
          <mxGeometry x="654.25" y="326.87999999999977" width="10.99" height="10" as="geometry" />
        </mxCell>
        <mxCell id="yimpczpQPqt2kt8ZRVUJ-149" value="data registrazione" style="text;html=1;align=center;verticalAlign=middle;whiteSpace=wrap;rounded=0;" vertex="1" parent="1">
          <mxGeometry x="663.29" y="326.88999999999976" width="105.94" height="7.48" as="geometry" />
        </mxCell>
        <mxCell id="yimpczpQPqt2kt8ZRVUJ-150" value="" style="ellipse;whiteSpace=wrap;html=1;" vertex="1" parent="1">
          <mxGeometry x="117.5" y="122.49999999999977" width="10" height="10" as="geometry" />
        </mxCell>
        <mxCell id="yimpczpQPqt2kt8ZRVUJ-151" value="" style="endArrow=none;html=1;rounded=0;exitX=0.008;exitY=0.409;exitDx=0;exitDy=0;entryX=1;entryY=0.5;entryDx=0;entryDy=0;exitPerimeter=0;" edge="1" parent="1" source="yimpczpQPqt2kt8ZRVUJ-112" target="yimpczpQPqt2kt8ZRVUJ-150">
          <mxGeometry width="50" height="50" relative="1" as="geometry">
            <mxPoint x="78" y="174.99999999999977" as="sourcePoint" />
            <mxPoint x="130" y="117.49999999999977" as="targetPoint" />
          </mxGeometry>
        </mxCell>
        <mxCell id="yimpczpQPqt2kt8ZRVUJ-152" value="(0,1)" style="edgeLabel;html=1;align=center;verticalAlign=middle;resizable=0;points=[];" connectable="0" vertex="1" parent="yimpczpQPqt2kt8ZRVUJ-151">
          <mxGeometry x="0.0225" relative="1" as="geometry">
            <mxPoint as="offset" />
          </mxGeometry>
        </mxCell>
        <mxCell id="yimpczpQPqt2kt8ZRVUJ-153" value="data consegna" style="text;html=1;align=center;verticalAlign=middle;whiteSpace=wrap;rounded=0;" vertex="1" parent="1">
          <mxGeometry x="23" y="118.75" width="104" height="15" as="geometry" />
        </mxCell>
        <mxCell id="yimpczpQPqt2kt8ZRVUJ-154" value="" style="ellipse;whiteSpace=wrap;html=1;" vertex="1" parent="1">
          <mxGeometry x="436.8900000000003" y="234.04999999999973" width="10" height="10" as="geometry" />
        </mxCell>
        <mxCell id="yimpczpQPqt2kt8ZRVUJ-155" value="" style="ellipse;whiteSpace=wrap;html=1;fillColor=#000000;" vertex="1" parent="1">
          <mxGeometry x="411.8900000000003" y="234.04999999999973" width="10" height="10" as="geometry" />
        </mxCell>
        <mxCell id="yimpczpQPqt2kt8ZRVUJ-156" value="" style="endArrow=none;html=1;rounded=0;exitX=0.5;exitY=0;exitDx=0;exitDy=0;entryX=0.064;entryY=1.017;entryDx=0;entryDy=0;entryPerimeter=0;" edge="1" parent="1" source="yimpczpQPqt2kt8ZRVUJ-155">
          <mxGeometry width="50" height="50" relative="1" as="geometry">
            <mxPoint x="368.77" y="265.2999999999997" as="sourcePoint" />
            <mxPoint x="416.6900000000005" y="215.80999999999972" as="targetPoint" />
          </mxGeometry>
        </mxCell>
        <mxCell id="yimpczpQPqt2kt8ZRVUJ-157" value="" style="endArrow=none;html=1;rounded=0;exitX=0.5;exitY=0;exitDx=0;exitDy=0;entryX=0.395;entryY=0.99;entryDx=0;entryDy=0;entryPerimeter=0;" edge="1" parent="1" source="yimpczpQPqt2kt8ZRVUJ-154">
          <mxGeometry width="50" height="50" relative="1" as="geometry">
            <mxPoint x="393.94000000000005" y="265.2999999999997" as="sourcePoint" />
            <mxPoint x="441.5150000000003" y="214.99999999999955" as="targetPoint" />
          </mxGeometry>
        </mxCell>
        <mxCell id="yimpczpQPqt2kt8ZRVUJ-158" value="P. IVA" style="text;html=1;align=center;verticalAlign=middle;whiteSpace=wrap;rounded=0;" vertex="1" parent="1">
          <mxGeometry x="381.52999999999975" y="237.49999999999977" width="60" height="30" as="geometry" />
        </mxCell>
        <mxCell id="yimpczpQPqt2kt8ZRVUJ-159" value="indirizzo" style="text;html=1;align=center;verticalAlign=middle;whiteSpace=wrap;rounded=0;" vertex="1" parent="1">
          <mxGeometry x="421.8900000000003" y="237.49999999999977" width="60" height="30" as="geometry" />
        </mxCell>
        <mxCell id="yimpczpQPqt2kt8ZRVUJ-160" value="" style="ellipse;whiteSpace=wrap;html=1;aspect=fixed;fillColor=#000000;" vertex="1" parent="1">
          <mxGeometry x="529.48" y="326.88999999999976" width="10" height="10" as="geometry" />
        </mxCell>
        <mxCell id="yimpczpQPqt2kt8ZRVUJ-161" value="" style="ellipse;whiteSpace=wrap;html=1;aspect=fixed;" vertex="1" parent="1">
          <mxGeometry x="617.7400000000002" y="447.4899999999998" width="10" height="10" as="geometry" />
        </mxCell>
        <mxCell id="yimpczpQPqt2kt8ZRVUJ-162" value="" style="endArrow=none;html=1;rounded=0;" edge="1" parent="1">
          <mxGeometry width="50" height="50" relative="1" as="geometry">
            <mxPoint x="622.7200000000003" y="447.4899999999998" as="sourcePoint" />
            <mxPoint x="622.6100000000001" y="421.2499999999998" as="targetPoint" />
          </mxGeometry>
        </mxCell>
        <mxCell id="yimpczpQPqt2kt8ZRVUJ-163" value="ID" style="text;html=1;align=center;verticalAlign=middle;whiteSpace=wrap;rounded=0;" vertex="1" parent="1">
          <mxGeometry x="520.5300000000002" y="336.88999999999976" width="25.36" height="20" as="geometry" />
        </mxCell>
        <mxCell id="yimpczpQPqt2kt8ZRVUJ-164" value="punti accumulati" style="text;html=1;align=center;verticalAlign=middle;whiteSpace=wrap;rounded=0;" vertex="1" parent="1">
          <mxGeometry x="613.2400000000002" y="451.2499999999998" width="60" height="30" as="geometry" />
        </mxCell>
        <mxCell id="yimpczpQPqt2kt8ZRVUJ-165" value="" style="endArrow=none;html=1;rounded=0;exitX=0.389;exitY=0.529;exitDx=0;exitDy=0;entryX=0;entryY=0.5;entryDx=0;entryDy=0;exitPerimeter=0;" edge="1" parent="1" source="yimpczpQPqt2kt8ZRVUJ-160" target="yimpczpQPqt2kt8ZRVUJ-133">
          <mxGeometry width="50" height="50" relative="1" as="geometry">
            <mxPoint x="511.5799999999999" y="380.00999999999976" as="sourcePoint" />
            <mxPoint x="561.5799999999999" y="330.00999999999976" as="targetPoint" />
          </mxGeometry>
        </mxCell>
        <mxCell id="yimpczpQPqt2kt8ZRVUJ-166" value="" style="ellipse;whiteSpace=wrap;html=1;" vertex="1" parent="1">
          <mxGeometry x="315.8899999999999" y="57.49999999999977" width="10" height="10" as="geometry" />
        </mxCell>
        <mxCell id="yimpczpQPqt2kt8ZRVUJ-167" value="" style="endArrow=none;html=1;rounded=0;exitX=0.999;exitY=0.88;exitDx=0;exitDy=0;entryX=0;entryY=0.5;entryDx=0;entryDy=0;exitPerimeter=0;" edge="1" parent="1" source="yimpczpQPqt2kt8ZRVUJ-64" target="yimpczpQPqt2kt8ZRVUJ-166">
          <mxGeometry width="50" height="50" relative="1" as="geometry">
            <mxPoint x="264.8800000000001" y="112.49999999999977" as="sourcePoint" />
            <mxPoint x="314.8800000000001" y="62.49999999999977" as="targetPoint" />
          </mxGeometry>
        </mxCell>
        <mxCell id="yimpczpQPqt2kt8ZRVUJ-168" value="metodo di pagamento" style="text;html=1;align=center;verticalAlign=middle;whiteSpace=wrap;rounded=0;" vertex="1" parent="1">
          <mxGeometry x="320.8900000000001" y="64.99999999999977" width="60" height="30" as="geometry" />
        </mxCell>
        <mxCell id="yimpczpQPqt2kt8ZRVUJ-169" value="" style="endArrow=none;html=1;rounded=0;" edge="1" parent="1">
          <mxGeometry width="50" height="50" relative="1" as="geometry">
            <mxPoint x="323" y="127.49999999999977" as="sourcePoint" />
            <mxPoint x="340" y="127.49999999999977" as="targetPoint" />
          </mxGeometry>
        </mxCell>
        <mxCell id="yimpczpQPqt2kt8ZRVUJ-170" value="" style="ellipse;whiteSpace=wrap;html=1;" vertex="1" parent="1">
          <mxGeometry x="340" y="122.49999999999977" width="10" height="10" as="geometry" />
        </mxCell>
        <mxCell id="yimpczpQPqt2kt8ZRVUJ-171" value="punto vendita" style="text;html=1;align=center;verticalAlign=middle;whiteSpace=wrap;rounded=0;" vertex="1" parent="1">
          <mxGeometry x="326.8900000000001" y="130.00999999999976" width="60" height="30" as="geometry" />
        </mxCell>
        <mxCell id="yimpczpQPqt2kt8ZRVUJ-172" value="" style="ellipse;whiteSpace=wrap;html=1;" vertex="1" parent="1">
          <mxGeometry x="117.5" y="110.00999999999999" width="10" height="10" as="geometry" />
        </mxCell>
        <mxCell id="yimpczpQPqt2kt8ZRVUJ-173" value="" style="endArrow=none;html=1;rounded=0;exitX=1;exitY=0.5;exitDx=0;exitDy=0;entryX=0;entryY=0;entryDx=0;entryDy=0;" edge="1" parent="1" source="yimpczpQPqt2kt8ZRVUJ-172" target="yimpczpQPqt2kt8ZRVUJ-112">
          <mxGeometry width="50" height="50" relative="1" as="geometry">
            <mxPoint x="113" y="165" as="sourcePoint" />
            <mxPoint x="163" y="115" as="targetPoint" />
          </mxGeometry>
        </mxCell>
        <mxCell id="yimpczpQPqt2kt8ZRVUJ-174" value="data spedizione" style="text;html=1;align=center;verticalAlign=middle;whiteSpace=wrap;rounded=0;" vertex="1" parent="1">
          <mxGeometry x="23" y="100" width="100" height="30" as="geometry" />
        </mxCell>
        <mxCell id="yimpczpQPqt2kt8ZRVUJ-175" value="corriere" style="text;html=1;align=center;verticalAlign=middle;whiteSpace=wrap;rounded=0;" vertex="1" parent="1">
          <mxGeometry x="184.8800000000001" y="155" width="100" height="10" as="geometry" />
        </mxCell>
        <mxCell id="yimpczpQPqt2kt8ZRVUJ-176" value="" style="ellipse;whiteSpace=wrap;html=1;" vertex="1" parent="1">
          <mxGeometry x="196.8800000000001" y="155" width="10" height="10" as="geometry" />
        </mxCell>
        <mxCell id="yimpczpQPqt2kt8ZRVUJ-177" value="" style="endArrow=none;html=1;rounded=0;exitX=0.5;exitY=0;exitDx=0;exitDy=0;entryX=0.555;entryY=0.991;entryDx=0;entryDy=0;entryPerimeter=0;" edge="1" parent="1" source="yimpczpQPqt2kt8ZRVUJ-176" target="yimpczpQPqt2kt8ZRVUJ-112">
          <mxGeometry width="50" height="50" relative="1" as="geometry">
            <mxPoint x="151" y="195" as="sourcePoint" />
            <mxPoint x="202" y="147.5" as="targetPoint" />
          </mxGeometry>
        </mxCell>
        <mxCell id="yimpczpQPqt2kt8ZRVUJ-178" value="" style="endArrow=none;html=1;rounded=0;exitX=1;exitY=0.5;exitDx=0;exitDy=0;" edge="1" parent="1" source="yimpczpQPqt2kt8ZRVUJ-180">
          <mxGeometry width="50" height="50" relative="1" as="geometry">
            <mxPoint x="590" y="197.5" as="sourcePoint" />
            <mxPoint x="630" y="67.5" as="targetPoint" />
            <Array as="points">
              <mxPoint x="630" y="193.5" />
            </Array>
          </mxGeometry>
        </mxCell>
        <mxCell id="yimpczpQPqt2kt8ZRVUJ-179" value="(0, 1)" style="edgeLabel;html=1;align=center;verticalAlign=middle;resizable=0;points=[];" connectable="0" vertex="1" parent="yimpczpQPqt2kt8ZRVUJ-178">
          <mxGeometry x="-0.084" y="-2" relative="1" as="geometry">
            <mxPoint as="offset" />
          </mxGeometry>
        </mxCell>
        <mxCell id="yimpczpQPqt2kt8ZRVUJ-180" value="&lt;font style=&quot;font-size: 10px;&quot;&gt;cliente azienda&lt;/font&gt;" style="rhombus;whiteSpace=wrap;html=1;" vertex="1" parent="1">
          <mxGeometry x="520.5300000000002" y="175" width="99.48" height="37.5" as="geometry" />
        </mxCell>
        <mxCell id="yimpczpQPqt2kt8ZRVUJ-181" value="" style="endArrow=none;html=1;rounded=0;exitX=0.999;exitY=0.461;exitDx=0;exitDy=0;entryX=0;entryY=0.5;entryDx=0;entryDy=0;exitPerimeter=0;" edge="1" parent="1" source="yimpczpQPqt2kt8ZRVUJ-123" target="yimpczpQPqt2kt8ZRVUJ-180">
          <mxGeometry width="50" height="50" relative="1" as="geometry">
            <mxPoint x="460" y="247.5" as="sourcePoint" />
            <mxPoint x="510" y="197.5" as="targetPoint" />
          </mxGeometry>
        </mxCell>
        <mxCell id="yimpczpQPqt2kt8ZRVUJ-182" value="(0, 1)" style="edgeLabel;html=1;align=center;verticalAlign=middle;resizable=0;points=[];" connectable="0" vertex="1" parent="yimpczpQPqt2kt8ZRVUJ-181">
          <mxGeometry x="-0.0678" y="1" relative="1" as="geometry">
            <mxPoint as="offset" />
          </mxGeometry>
        </mxCell>
        <mxCell id="yimpczpQPqt2kt8ZRVUJ-183" value="quantità minima ordinabile" style="text;html=1;align=center;verticalAlign=middle;whiteSpace=wrap;rounded=0;" vertex="1" parent="1">
          <mxGeometry x="35.440000000000055" y="224.04999999999995" width="117.12" height="30" as="geometry" />
        </mxCell>
        <mxCell id="yimpczpQPqt2kt8ZRVUJ-184" value="prezzo fornitura" style="text;html=1;align=center;verticalAlign=middle;whiteSpace=wrap;rounded=0;" vertex="1" parent="1">
          <mxGeometry x="143" y="232.5" width="60" height="30" as="geometry" />
        </mxCell>
        <mxCell id="yimpczpQPqt2kt8ZRVUJ-185" value="tempo stimato consegna" style="text;html=1;align=center;verticalAlign=middle;whiteSpace=wrap;rounded=0;" vertex="1" parent="1">
          <mxGeometry x="198" y="225" width="100" height="30" as="geometry" />
        </mxCell>
        <mxCell id="yimpczpQPqt2kt8ZRVUJ-186" value="" style="ellipse;whiteSpace=wrap;html=1;" vertex="1" parent="1">
          <mxGeometry x="168" y="225" width="10" height="10" as="geometry" />
        </mxCell>
        <mxCell id="yimpczpQPqt2kt8ZRVUJ-187" value="" style="ellipse;whiteSpace=wrap;html=1;" vertex="1" parent="1">
          <mxGeometry x="92.88000000000011" y="217.5" width="10" height="10" as="geometry" />
        </mxCell>
        <mxCell id="yimpczpQPqt2kt8ZRVUJ-188" value="" style="ellipse;whiteSpace=wrap;html=1;" vertex="1" parent="1">
          <mxGeometry x="236.5" y="217.5" width="10" height="10" as="geometry" />
        </mxCell>
        <mxCell id="yimpczpQPqt2kt8ZRVUJ-189" value="" style="endArrow=none;html=1;rounded=0;exitX=1;exitY=0;exitDx=0;exitDy=0;entryX=0.192;entryY=0.698;entryDx=0;entryDy=0;entryPerimeter=0;" edge="1" parent="1" source="yimpczpQPqt2kt8ZRVUJ-187" target="yimpczpQPqt2kt8ZRVUJ-120">
          <mxGeometry width="50" height="50" relative="1" as="geometry">
            <mxPoint x="92.88000000000011" y="252.5" as="sourcePoint" />
            <mxPoint x="142.8800000000001" y="202.5" as="targetPoint" />
          </mxGeometry>
        </mxCell>
        <mxCell id="yimpczpQPqt2kt8ZRVUJ-190" value="" style="endArrow=none;html=1;rounded=0;exitX=0;exitY=0;exitDx=0;exitDy=0;entryX=0.828;entryY=0.678;entryDx=0;entryDy=0;entryPerimeter=0;" edge="1" parent="1" source="yimpczpQPqt2kt8ZRVUJ-188" target="yimpczpQPqt2kt8ZRVUJ-120">
          <mxGeometry width="50" height="50" relative="1" as="geometry">
            <mxPoint x="156.8800000000001" y="252.5" as="sourcePoint" />
            <mxPoint x="206.8800000000001" y="202.5" as="targetPoint" />
          </mxGeometry>
        </mxCell>
        <mxCell id="yimpczpQPqt2kt8ZRVUJ-191" value="" style="endArrow=none;html=1;rounded=0;exitX=0.5;exitY=0;exitDx=0;exitDy=0;entryX=0.5;entryY=1;entryDx=0;entryDy=0;" edge="1" parent="1" source="yimpczpQPqt2kt8ZRVUJ-186" target="yimpczpQPqt2kt8ZRVUJ-120">
          <mxGeometry width="50" height="50" relative="1" as="geometry">
            <mxPoint x="124" y="264.38" as="sourcePoint" />
            <mxPoint x="174" y="214.38" as="targetPoint" />
          </mxGeometry>
        </mxCell>
        <mxCell id="yimpczpQPqt2kt8ZRVUJ-192" value="reso" style="rhombus;whiteSpace=wrap;html=1;" vertex="1" parent="1">
          <mxGeometry x="384.1699999999996" y="-20" width="93.11" height="35.01" as="geometry" />
        </mxCell>
        <mxCell id="yimpczpQPqt2kt8ZRVUJ-193" value="" style="ellipse;whiteSpace=wrap;html=1;" vertex="1" parent="1">
          <mxGeometry x="381.52999999999975" y="-35.610000000000014" width="10" height="10" as="geometry" />
        </mxCell>
        <mxCell id="yimpczpQPqt2kt8ZRVUJ-194" value="" style="ellipse;whiteSpace=wrap;html=1;" vertex="1" parent="1">
          <mxGeometry x="467.27999999999975" y="-35.610000000000014" width="10" height="10" as="geometry" />
        </mxCell>
        <mxCell id="yimpczpQPqt2kt8ZRVUJ-195" value="data reso" style="text;html=1;align=center;verticalAlign=middle;whiteSpace=wrap;rounded=0;" vertex="1" parent="1">
          <mxGeometry x="322.0300000000002" y="-45.610000000000014" width="60" height="30" as="geometry" />
        </mxCell>
        <mxCell id="yimpczpQPqt2kt8ZRVUJ-196" value="stato rimborso" style="text;html=1;align=center;verticalAlign=middle;whiteSpace=wrap;rounded=0;" vertex="1" parent="1">
          <mxGeometry x="477.8899999999999" y="-50" width="83.86" height="30" as="geometry" />
        </mxCell>
        <mxCell id="yimpczpQPqt2kt8ZRVUJ-197" value="" style="endArrow=none;html=1;rounded=0;exitX=0.223;exitY=0.263;exitDx=0;exitDy=0;exitPerimeter=0;entryX=1;entryY=1;entryDx=0;entryDy=0;" edge="1" parent="1" source="yimpczpQPqt2kt8ZRVUJ-192" target="yimpczpQPqt2kt8ZRVUJ-193">
          <mxGeometry width="50" height="50" relative="1" as="geometry">
            <mxPoint x="341.1400000000001" y="24.389999999999986" as="sourcePoint" />
            <mxPoint x="391.1399999999999" y="-24.99000000000001" as="targetPoint" />
          </mxGeometry>
        </mxCell>
        <mxCell id="yimpczpQPqt2kt8ZRVUJ-198" value="" style="endArrow=none;html=1;rounded=0;exitX=1;exitY=0;exitDx=0;exitDy=0;entryX=0;entryY=1;entryDx=0;entryDy=0;" edge="1" parent="1" source="yimpczpQPqt2kt8ZRVUJ-192" target="yimpczpQPqt2kt8ZRVUJ-194">
          <mxGeometry width="50" height="50" relative="1" as="geometry">
            <mxPoint x="418.02999999999975" y="22.50999999999999" as="sourcePoint" />
            <mxPoint x="468.02999999999975" y="-27.49000000000001" as="targetPoint" />
          </mxGeometry>
        </mxCell>
        <mxCell id="yimpczpQPqt2kt8ZRVUJ-199" value="" style="endArrow=none;html=1;rounded=0;exitX=1.001;exitY=0.1;exitDx=0;exitDy=0;exitPerimeter=0;entryX=0;entryY=0.5;entryDx=0;entryDy=0;" edge="1" parent="1" source="yimpczpQPqt2kt8ZRVUJ-64" target="yimpczpQPqt2kt8ZRVUJ-192">
          <mxGeometry width="50" height="50" relative="1" as="geometry">
            <mxPoint x="315.8900000000001" y="42.5" as="sourcePoint" />
            <mxPoint x="380" y="-2.5" as="targetPoint" />
            <Array as="points">
              <mxPoint x="370" y="31.5" />
              <mxPoint x="370" y="-2.5" />
            </Array>
          </mxGeometry>
        </mxCell>
        <mxCell id="yimpczpQPqt2kt8ZRVUJ-200" value="(0, 1)" style="edgeLabel;html=1;align=center;verticalAlign=middle;resizable=0;points=[];" connectable="0" vertex="1" parent="yimpczpQPqt2kt8ZRVUJ-199">
          <mxGeometry x="-0.0946" y="1" relative="1" as="geometry">
            <mxPoint x="-5" as="offset" />
          </mxGeometry>
        </mxCell>
        <mxCell id="yimpczpQPqt2kt8ZRVUJ-201" value="" style="endArrow=none;html=1;rounded=0;entryX=0.467;entryY=0.014;entryDx=0;entryDy=0;exitX=1;exitY=0.5;exitDx=0;exitDy=0;entryPerimeter=0;" edge="1" parent="1" source="yimpczpQPqt2kt8ZRVUJ-192" target="yimpczpQPqt2kt8ZRVUJ-87">
          <mxGeometry width="50" height="50" relative="1" as="geometry">
            <mxPoint x="508.21000000000004" y="32.5" as="sourcePoint" />
            <mxPoint x="558.21" y="-17.5" as="targetPoint" />
            <Array as="points">
              <mxPoint x="608" y="-2.5" />
            </Array>
          </mxGeometry>
        </mxCell>
        <mxCell id="yimpczpQPqt2kt8ZRVUJ-202" value="(0, N)" style="edgeLabel;html=1;align=center;verticalAlign=middle;resizable=0;points=[];" connectable="0" vertex="1" parent="yimpczpQPqt2kt8ZRVUJ-201">
          <mxGeometry x="0.065" y="1" relative="1" as="geometry">
            <mxPoint x="-17" y="1" as="offset" />
          </mxGeometry>
        </mxCell>
        <mxCell id="yimpczpQPqt2kt8ZRVUJ-203" value="telefono" style="text;html=1;align=center;verticalAlign=middle;whiteSpace=wrap;rounded=0;" vertex="1" parent="1">
          <mxGeometry x="336.8900000000001" y="237.5" width="60" height="30" as="geometry" />
        </mxCell>
        <mxCell id="yimpczpQPqt2kt8ZRVUJ-204" value="indirizzo" style="text;html=1;align=center;verticalAlign=middle;whiteSpace=wrap;rounded=0;" vertex="1" parent="1">
          <mxGeometry x="371.8899999999999" y="391.25" width="60" height="30" as="geometry" />
        </mxCell>
        <mxCell id="yimpczpQPqt2kt8ZRVUJ-205" value="" style="ellipse;whiteSpace=wrap;html=1;" vertex="1" parent="1">
          <mxGeometry x="384.1700000000001" y="233.24" width="10" height="10" as="geometry" />
        </mxCell>
        <mxCell id="yimpczpQPqt2kt8ZRVUJ-206" value="" style="endArrow=none;html=1;rounded=0;exitX=0.5;exitY=0;exitDx=0;exitDy=0;entryX=0.064;entryY=1.017;entryDx=0;entryDy=0;entryPerimeter=0;" edge="1" parent="1" source="yimpczpQPqt2kt8ZRVUJ-205">
          <mxGeometry width="50" height="50" relative="1" as="geometry">
            <mxPoint x="341.0499999999997" y="264.49" as="sourcePoint" />
            <mxPoint x="388.97000000000025" y="215" as="targetPoint" />
          </mxGeometry>
        </mxCell>
        <mxCell id="yimpczpQPqt2kt8ZRVUJ-207" value="e-mail" style="text;html=1;align=center;verticalAlign=middle;whiteSpace=wrap;rounded=0;" vertex="1" parent="1">
          <mxGeometry x="311.8900000000001" y="202.5" width="60" height="10" as="geometry" />
        </mxCell>
        <mxCell id="yimpczpQPqt2kt8ZRVUJ-208" value="" style="ellipse;whiteSpace=wrap;html=1;" vertex="1" parent="1">
          <mxGeometry x="361.8900000000001" y="202.5" width="10" height="10" as="geometry" />
        </mxCell>
        <mxCell id="yimpczpQPqt2kt8ZRVUJ-209" value="" style="endArrow=none;html=1;rounded=0;exitX=1;exitY=0.5;exitDx=0;exitDy=0;entryX=-0.006;entryY=0.815;entryDx=0;entryDy=0;entryPerimeter=0;" edge="1" parent="1" source="yimpczpQPqt2kt8ZRVUJ-208" target="yimpczpQPqt2kt8ZRVUJ-123">
          <mxGeometry width="50" height="50" relative="1" as="geometry">
            <mxPoint x="333.03" y="255" as="sourcePoint" />
            <mxPoint x="383.0300000000002" y="205" as="targetPoint" />
          </mxGeometry>
        </mxCell>
        <mxCell id="yimpczpQPqt2kt8ZRVUJ-210" value="" style="ellipse;whiteSpace=wrap;html=1;fillColor=#000000;" vertex="1" parent="1">
          <mxGeometry x="361.8900000000001" y="401.25" width="10" height="10" as="geometry" />
        </mxCell>
        <mxCell id="yimpczpQPqt2kt8ZRVUJ-211" value="" style="endArrow=none;html=1;rounded=0;entryX=0;entryY=0.5;entryDx=0;entryDy=0;exitX=1.002;exitY=0.329;exitDx=0;exitDy=0;exitPerimeter=0;" edge="1" parent="1" source="yimpczpQPqt2kt8ZRVUJ-128" target="yimpczpQPqt2kt8ZRVUJ-210">
          <mxGeometry width="50" height="50" relative="1" as="geometry">
            <mxPoint x="309.1700000000001" y="455" as="sourcePoint" />
            <mxPoint x="359.1700000000001" y="405" as="targetPoint" />
          </mxGeometry>
        </mxCell>
        <mxCell id="yimpczpQPqt2kt8ZRVUJ-212" value="" style="ellipse;whiteSpace=wrap;html=1;" vertex="1" parent="1">
          <mxGeometry x="467.2800000000002" y="234.05000000000018" width="10" height="10" as="geometry" />
        </mxCell>
        <mxCell id="yimpczpQPqt2kt8ZRVUJ-213" value="" style="endArrow=none;html=1;rounded=0;exitX=0.5;exitY=0;exitDx=0;exitDy=0;entryX=0.395;entryY=0.99;entryDx=0;entryDy=0;entryPerimeter=0;" edge="1" parent="1" source="yimpczpQPqt2kt8ZRVUJ-212">
          <mxGeometry width="50" height="50" relative="1" as="geometry">
            <mxPoint x="424.3299999999999" y="265.3000000000002" as="sourcePoint" />
            <mxPoint x="471.9050000000002" y="215" as="targetPoint" />
          </mxGeometry>
        </mxCell>
        <mxCell id="yimpczpQPqt2kt8ZRVUJ-214" value="nome" style="text;html=1;align=center;verticalAlign=middle;whiteSpace=wrap;rounded=0;" vertex="1" parent="1">
          <mxGeometry x="460.5300000000002" y="235" width="60" height="30" as="geometry" />
        </mxCell>
        <mxCell id="yimpczpQPqt2kt8ZRVUJ-215" value="" style="ellipse;whiteSpace=wrap;html=1;aspect=fixed;fillColor=light-dark(#FFFFFF,#EDEDED);strokeColor=#000000;" vertex="1" parent="1">
          <mxGeometry x="-140.5" y="227.5" width="10" height="10" as="geometry" />
        </mxCell>
        <mxCell id="yimpczpQPqt2kt8ZRVUJ-216" value="" style="endArrow=none;html=1;rounded=0;exitX=-0.005;exitY=0.945;exitDx=0;exitDy=0;exitPerimeter=0;entryX=1;entryY=0.5;entryDx=0;entryDy=0;" edge="1" parent="1" source="yimpczpQPqt2kt8ZRVUJ-1" target="yimpczpQPqt2kt8ZRVUJ-215">
          <mxGeometry width="50" height="50" relative="1" as="geometry">
            <mxPoint x="-150.27999999999997" y="242.5" as="sourcePoint" />
            <mxPoint x="-150.28999999999996" y="262.5" as="targetPoint" />
          </mxGeometry>
        </mxCell>
        <mxCell id="yimpczpQPqt2kt8ZRVUJ-217" value="lingua" style="text;html=1;align=center;verticalAlign=middle;whiteSpace=wrap;rounded=0;" vertex="1" parent="1">
          <mxGeometry x="-193.5" y="217.5" width="60" height="30" as="geometry" />
        </mxCell>
      </root>
    </mxGraphModel>
  </diagram>
</mxfile>
